<?xml version="1.0" encoding="utf-8"?>
<!-- Generator: Adobe Illustrator 28.0.0, SVG Export Plug-In . SVG Version: 6.00 Build 0)  -->
<svg version="1.1" id="Layer_1" xmlns="http://www.w3.org/2000/svg" xmlns:xlink="http://www.w3.org/1999/xlink" x="0px" y="0px"
	 viewBox="0 0 171 53" style="enable-background:new 0 0 171 53;" xml:space="preserve">
<style type="text/css">
	.st0{fill:#A39165;}
	.st1{fill:#231F20;}
</style>
<g>
	<path class="st0" d="M32.1,28.3c0,0.8-0.2,1.7-0.5,2.6c-0.6,1.5-1.6,2.7-3,3.4c-1.3,0.7-3,1.1-4.9,1.1c-1.8,0-3.5-0.3-5-0.9
		c-1.5-0.6-3-1.6-4.4-3.1l-0.2-0.2l0.3-0.4l1.4-2.1l0.3,0.6c0.7,1.4,1.3,2.3,2.2,3.4c1.6,1,3.2,1.5,4.9,1.5c2.2,0,5.9-1.8,6.4-4.5
		c0.1-0.6,0-1.2-0.2-1.6c-0.3-0.5-0.7-0.9-1.2-1.3c-0.6-0.4-1.3-0.8-2.1-1.1c-0.9-0.3-1.8-0.6-2.9-0.9c-0.9-0.2-1.9-0.5-2.9-0.9
		c-1-0.3-2-0.8-2.9-1.4c-0.9-0.6-1.6-1.4-2.2-2.3c-0.6-0.9-0.8-2.1-0.8-3.5c0.1-1.3,0.4-2.4,0.9-3.2c0.5-0.9,1.2-1.6,2-2.1
		c0.8-0.5,1.7-0.9,2.7-1.1c1-0.2,1.9-0.3,2.8-0.3c0.7,0,1.4,0.1,2.1,0.2c0.7,0.1,1.4,0.3,2.1,0.6c0,0,0.1,0,0.1,0l0.3,0.1l-0.2,0.4
		l-0.4,2.5l-0.5-0.4c-1.2-1-2.1-1.6-3.5-2.4c-2,0.2-4.5,1.4-5.3,3.1c-0.3,0.5-0.4,1.1-0.4,1.8c0,0.6,0.1,1,0.3,1.4
		c0.2,0.4,0.6,0.7,1.1,1c0.5,0.3,1.3,0.6,2.1,0.9c0.9,0.3,2,0.7,3.4,1.1c1.5,0.5,2.8,1,3.8,1.5c1.1,0.5,1.9,1.1,2.6,1.7
		c0.7,0.6,1.2,1.3,1.5,2.1C31.9,26.4,32.1,27.3,32.1,28.3z"/>
	<path class="st0" d="M49.8,33.7l-0.2,0.2c-0.5,0.6-1.1,1-1.7,1.2c-0.6,0.2-1.3,0.3-1.9,0.3c-0.6,0-2-0.1-2.6-0.3
		c-0.6-0.2-1.2-0.6-1.7-1.2c-0.5-0.5-0.9-1.3-1.2-2.2c-0.3-0.9-0.4-2-0.4-3.3v-7.8h-3v-0.9l0.2-0.1c1.9-0.8,4.5-2.7,5.9-5l0.7-1.2
		v15c0,2,0.2,3.4,0.5,4.3c0.2,0.5,0.7,1.7,1.8,1.7c0.9,0,1.7-0.9,2.2-1.7l0.3-0.4L49.8,33.7z"/>
	<path class="st0" d="M67.1,16.5L67,16.8c-0.1,0.4-0.1,0.9-0.2,1.3c-0.1,0.4-0.2,0.8-0.2,1.3L66.5,20L66,19.7
		c-0.9-0.7-3.1-0.8-4-0.3c-0.6,0.3-1.1,1-1.6,2.2v13.9h-3.8V16.5l2.7,0l1,2.2l0,0.3c0.4-0.6,0.9-1.1,1.4-1.5
		c0.9-0.8,2.2-1.1,3.7-1.1c0.4,0,0.8,0,1.3,0.1L67.1,16.5z"/>
	<path class="st0" d="M88,25.9v9.5h-2.8l-0.6-1.3c-0.4,0.3-0.8,0.5-1.4,0.8c-0.9,0.4-2.3,0.5-3.3,0.5c-0.7,0-1.6-0.1-2.5-0.3
		c-0.9-0.2-1.7-0.7-2.3-1.3c-0.6-0.6-1.1-1.3-1.4-2.1c-0.3-0.8-0.5-1.6-0.4-2.5c0-0.8,0.2-1.7,0.5-2.4c0.3-0.8,0.7-1.5,1.3-2.1
		c0.6-0.6,1.4-1,2.3-1.3c0.6-0.2,1.5-0.3,2.2-0.4l0.3,0c0.7-0.1,1.3-0.2,2-0.4c0.6-0.1,1.1-0.3,1.6-0.5c0.5-0.2,0.7-0.5,0.7-1.1
		c0-0.8-0.4-1.7-0.9-2.3c-1.2-1.5-3.5-1.9-4.8-0.8c-1.3,1-1.4,2.2-1.5,3.2c0,0.2,0,0.3-0.1,0.5l-0.1,0.5l-3.6-1.8l0.2-0.3
		c2.7-3.8,6.2-3.8,7.7-3.8l0.2,0c3.3,0,5,2.3,5.5,3.6c0.3,0.8,0.1,1.9-0.6,2.3c-0.7,0.5-1.9,1-3.6,1.5c-2.5,0.7-4.9,1.3-5.5,4.1
		c-0.4,1.6-0.2,3.3,0.6,4.5c0.5,0.7,1.1,1.2,1.8,1.4c2.4,0.5,3.8-0.5,4.6-1.4c0.1-0.4,0-2.6,0-4.5l0-0.3L88,25.9z"/>
	<path class="st0" d="M112.4,25.9c0,1.6-0.2,3.1-0.7,4.2c-0.5,1.2-1.1,2.2-1.9,2.9c-0.8,0.8-1.7,1.4-2.6,1.7c-2,0.8-4.1,0.7-5.9-0.1
		c-0.6-0.3-1.1-0.6-1.6-1v8.7h-3.8V16.7h2.9l0.5,1.4c0.5-0.5,1.1-0.8,1.7-1.1c1.7-0.7,3.8-0.7,5.7,0.1c1,0.4,1.9,0.9,2.7,1.7
		c0.8,0.8,1.5,1.7,2,2.9C112.1,22.9,112.4,24.3,112.4,25.9z M108.2,25c-0.1-1.1-0.3-2.1-0.6-2.9c-0.6-1.4-2-3.2-3.8-3.8
		c-0.9-0.3-1.8-0.3-2.7,0.1c-0.5,0.2-0.9,0.7-1.4,1.1v12.3c0.5,0.6,1,1.1,1.5,1.3c0.7,0.4,1.4,0.5,2.2,0.5c3.1,0,4.2-3.4,4.6-4.8
		C108.2,27.8,108.3,26.5,108.2,25z"/>
	<path class="st0" d="M135.4,25.8c-0.7,1.5-2.9,1.3-3,1.3c0,0-6.7,0-8.8,0c0.1,1.6,0.5,2.9,1.5,4c0.7,0.9,1.6,1.6,2.5,2
		c1.2,0.5,2.3,0.6,3.3,0.2c1.8-0.7,2.7-2.6,2.7-2.6l0.2-0.4l1.3,1l-0.2,0.3c-1.9,2.4-4.4,3.8-6.9,3.8c-0.2,0-0.5,0-0.7,0l-0.1,0
		c-5.7-0.4-7.1-5.5-7.3-7.1l0-0.2c0.2-2,3.3-2.3,3.5-2.3c0.3,0,7,0,8.7,0c0.2-2.8-0.3-4.9-1.6-6.3c-1.1-1.2-2.5-1.5-2.7-1.5
		c-4,0.5-4.3,6.8-4.3,6.8l0,0.3l-0.3,0c-2.5,0.3-3.4-0.7-3.5-0.8l-0.1-0.1l0-0.2c1.3-7.2,6.3-7.7,8.2-7.7l0.1,0
		c3.5-0.1,5.4,1.8,6.4,3.3C135.5,22,135.8,24.9,135.4,25.8z"/>
	<path class="st0" d="M158.1,35.4h-4.4l-5.2-7.3l-5.2,7.3l-1.5,0l5.9-8.3l-7.6-10.8h4.3L150,24l5.4-7.7l1.5,0l-6.2,8.7L158.1,35.4z"
		/>
</g>
<g>
	<path class="st1" d="M57.6,3.7h0.7v2c-0.5,0.4-1.2,0.6-1.9,0.6c-1.6,0-2.7-1.1-2.7-2.6c0-1.5,1.2-2.6,2.7-2.6c0.8,0,1.5,0.3,2,0.8
		l-0.5,0.5c-0.4-0.4-0.9-0.6-1.5-0.6c-1.2,0-2,0.8-2,2c0,1.1,0.9,2,2,2c0.4,0,0.8-0.1,1.2-0.3V3.7z"/>
	<path class="st1" d="M69.7,6.2l-1.1-1.6c-0.1,0-0.2,0-0.3,0h-1.3v1.6h-0.7V1.1h2c1.3,0,2.1,0.7,2.1,1.8c0,0.8-0.4,1.4-1.1,1.6
		l1.2,1.7H69.7z M69.7,2.9c0-0.7-0.5-1.1-1.4-1.1h-1.2v2.3h1.2C69.2,4.1,69.7,3.6,69.7,2.9z"/>
	<path class="st1" d="M77.9,3.7c0-1.5,1.2-2.6,2.7-2.6c1.6,0,2.7,1.1,2.7,2.6c0,1.5-1.2,2.6-2.7,2.6C79,6.3,77.9,5.2,77.9,3.7z
		 M82.6,3.7c0-1.1-0.8-2-2-2c-1.1,0-2,0.8-2,2c0,1.1,0.8,2,2,2C81.7,5.6,82.6,4.8,82.6,3.7z"/>
	<path class="st1" d="M91.1,4V1.1h0.7V4c0,1.1,0.5,1.6,1.4,1.6c0.9,0,1.4-0.5,1.4-1.6V1.1h0.7V4c0,1.5-0.8,2.3-2.2,2.3
		C91.9,6.3,91.1,5.5,91.1,4z"/>
	<path class="st1" d="M107.6,2.9c0,1.1-0.8,1.8-2.1,1.8h-1.3v1.5h-0.7V1.1h2C106.8,1.1,107.6,1.8,107.6,2.9z M106.9,2.9
		c0-0.7-0.5-1.1-1.4-1.1h-1.2v2.3h1.2C106.4,4.1,106.9,3.6,106.9,2.9z"/>
	<path class="st1" d="M119.1,5.6v0.6h-3.7V1.1h3.6v0.6h-2.9v1.6h2.6V4h-2.6v1.6H119.1z"/>
</g>
<g>
	<path class="st1" d="M57.9,51.3l0-3.6l-1.8,3h-0.3l-1.8-3v3.6h-0.7v-5h0.6l2.1,3.5l2.1-3.5h0.6l0,5H57.9z"/>
	<path class="st1" d="M72.6,50h-2.6l-0.5,1.2h-0.7l2.3-5h0.7l2.3,5h-0.7L72.6,50z M72.3,49.4L71.2,47l-1.1,2.4H72.3z"/>
	<path class="st1" d="M87.9,51.3l-1.1-1.6c-0.1,0-0.2,0-0.3,0h-1.3v1.6h-0.7v-5.1h2c1.3,0,2.1,0.7,2.1,1.8c0,0.8-0.4,1.4-1.1,1.6
		l1.2,1.7H87.9z M87.8,48c0-0.7-0.5-1.1-1.4-1.1h-1.2v2.3h1.2C87.3,49.1,87.8,48.7,87.8,48z"/>
	<path class="st1" d="M99.2,48.8c0-1.5,1.1-2.5,2.7-2.5c1.5,0,2.6,1.1,2.6,2.5c0,1.5-1.1,2.6-2.6,2.6
		C100.3,51.3,99.2,50.2,99.2,48.8z M103.8,48.8c0-1.1-0.8-1.9-1.9-1.9c-1.1,0-1.9,0.8-1.9,1.9c0,1.1,0.8,1.9,1.9,1.9
		C103,50.7,103.8,49.9,103.8,48.8z"/>
	<path class="st1" d="M114.9,48.8c0-1.5,1.1-2.5,2.6-2.5c0.8,0,1.4,0.3,1.9,0.8l-0.5,0.4c-0.4-0.4-0.9-0.6-1.4-0.6
		c-1.1,0-2,0.8-2,1.9c0,1.1,0.8,1.9,2,1.9c0.5,0,1-0.2,1.4-0.6l0.5,0.4c-0.5,0.5-1.1,0.8-1.9,0.8C116,51.3,114.9,50.2,114.9,48.8z"
		/>
</g>
</svg>
