<?xml version="1.0" encoding="utf-8"?>
<!-- Generator: Adobe Illustrator 28.0.0, SVG Export Plug-In . SVG Version: 6.00 Build 0)  -->
<svg version="1.1" id="Capa_1" xmlns="http://www.w3.org/2000/svg" xmlns:xlink="http://www.w3.org/1999/xlink" x="0px" y="0px"
	 viewBox="0 0 236.8 56.4" style="enable-background:new 0 0 236.8 56.4;" xml:space="preserve">
<style type="text/css">
	.st0{clip-path:url(#SVGID_00000160184738835568678040000011639525521142720905_);}
	.st1{clip-path:url(#SVGID_00000106853075762397981650000016368663782242249604_);fill:#676158;}
	.st2{clip-path:url(#SVGID_00000106853075762397981650000016368663782242249604_);fill:#676259;}
	.st3{clip-path:url(#SVGID_00000106853075762397981650000016368663782242249604_);fill:#FFFFFF;}
	.st4{clip-path:url(#SVGID_00000106853075762397981650000016368663782242249604_);fill:#BE9600;}
</style>
<g>
	<g>
		<defs>
			<rect id="SVGID_1_" x="15.1" y="-3.9" width="208.9" height="67.4"/>
		</defs>
		<clipPath id="SVGID_00000059273695764836242730000010576156007443946162_">
			<use xlink:href="#SVGID_1_"  style="overflow:visible;"/>
		</clipPath>
		<g style="clip-path:url(#SVGID_00000059273695764836242730000010576156007443946162_);">
			<defs>
				<rect id="SVGID_00000080922501280499594860000008416559567915608194_" x="15.1" y="-3.9" width="208.9" height="67.4"/>
			</defs>
			<clipPath id="SVGID_00000046325272753001066950000009832206145007387534_">
				<use xlink:href="#SVGID_00000080922501280499594860000008416559567915608194_"  style="overflow:visible;"/>
			</clipPath>
			<path style="clip-path:url(#SVGID_00000046325272753001066950000009832206145007387534_);fill:#676158;" d="M115.9,35
				c0,0,0.1,0,0.1,0c1-1,2-2,2.9-2.9c0.3-0.2,0.3-0.5,0.3-0.9c0-1.6,0-3.2,0-4.8c0-1.6,0-3.2,0-4.7c0-0.4,0.1-0.7,0.4-1
				c0.2-0.2,0.4-0.4,0.6-0.6c3.5-3.4,6.9-6.8,10.4-10.2c0.3-0.3,0.4-0.5,0.4-0.9c0-1.2,0-2.4,0-3.6c0-0.2,0-0.3-0.1-0.6
				c-0.2,0.2-0.4,0.4-0.6,0.5c-4.7,4.6-9.4,9.2-14.1,13.8c-0.3,0.3-0.4,0.6-0.4,1c0,4.8,0,9.5,0,14.3V35z"/>
			<path style="clip-path:url(#SVGID_00000046325272753001066950000009832206145007387534_);fill:#676259;" d="M82.7,10
				c-0.1,0.9-0.1,21.2,0,21.6H84c0-0.3,0-0.5,0-0.7c0-1.4,0-2.9,0-4.3c0-3.7,0-7.5,0-11.2c0-0.2,0-0.5,0-0.7c0,0,0.1,0,0.1,0
				c3.2,4.5,6.4,9,9.6,13.5c0.1,0,0.1-0.1,0.1-0.1c0,0,0,0,0,0c0,0,0.1-0.1,0.1-0.1c3-4.3,6-8.6,9-12.9c0,0,0-0.1,0.1-0.1
				c0,0,0-0.1,0.1-0.1c0,0,0,0,0,0c0,0,0.1-0.1,0.1-0.1c0,0,0,0,0.1,0c0,0,0,0,0.1,0c0,0.2,0,0.5,0,0.7c0,5.2,0,10.3,0,15.5
				c0,0.2,0,0.5,0,0.7h1.3c0.1-0.8,0.1-21,0-21.5c-0.5,0.8-1.1,1.5-1.6,2.3c-0.5,0.7-1,1.5-1.5,2.2c-0.5,0.7-1,1.5-1.6,2.2
				c-0.5,0.7-1,1.5-1.5,2.2c-0.5,0.7-1,1.5-1.6,2.2c-0.5,0.7-1,1.5-1.5,2.2c-0.5,0.7-1,1.5-1.6,2.3C90.1,20.4,86.5,15.3,82.7,10"/>
			<path style="clip-path:url(#SVGID_00000046325272753001066950000009832206145007387534_);fill:#676259;" d="M64.8,11.5
				c0.2,0,0.2-0.1,0.3-0.1c2.1,0,4.1,0,6.2,0c1.6,0,3.1,0.6,4.2,1.9c1.4,1.6,1.5,3.6,0.2,5.3c-0.9,1.1-2,1.7-3.4,2
				c-1.4,0.2-2.8,0.2-4.2,0.2c-0.2,0-0.5,0-0.9,0c0.2,0.3,0.3,0.4,0.5,0.6c1.7,2.1,3.4,4.2,5.1,6.3c1,1.2,2,2.4,3,3.6
				c0.1,0.1,0.3,0.3,0.4,0.3c0.5,0,1.1,0.1,1.6,0c0-0.1,0-0.1,0-0.1c-2.5-3-4.9-6-7.4-9c0,0,0-0.1-0.1-0.1c0,0,0-0.1,0-0.1
				c0,0,0,0,0-0.1c0,0,0,0,0-0.1c0.5,0,1-0.1,1.6-0.1c2.1-0.2,3.8-1.1,5.1-2.8c1.1-1.6,1.3-3.3,0.6-5.1c-0.7-1.7-1.9-2.7-3.6-3.4
				c-1-0.4-2.2-0.6-3.3-0.6c-2.2,0-4.5,0-6.7,0c-0.2,0-0.4,0-0.6,0v21.5c0.5,0.1,0.9,0.1,1.4,0V11.5z"/>
			<path style="clip-path:url(#SVGID_00000046325272753001066950000009832206145007387534_);fill:#676259;" d="M209.1,20.1
				c-0.2-0.7-0.1-8.2,0-8.7h0.7c2.5,0,5.1,0,7.6,0c0.2,0,0.5,0,0.7-0.1v-1.3c-0.8-0.1-10-0.1-10.4,0c-0.1,0.7-0.1,21,0,21.5
				c3.5,0,6.9,0,10.4,0c0-0.5,0.1-1,0-1.4c-3,0-6,0-9,0c-0.2-0.6-0.2-8,0-8.6h0.6c2.1,0,4.1,0,6.2,0c0.2,0,0.4,0,0.7,0
				c0-0.5,0.1-0.9-0.1-1.4H209.1z"/>
			<path style="clip-path:url(#SVGID_00000046325272753001066950000009832206145007387534_);fill:#676259;" d="M32.9,20.1h-0.7
				c-2.8,0-5.5,0-8.3,0c-0.2,0-0.3,0-0.5,0c-0.2,0-0.3-0.1-0.3-0.3c0-0.1,0-0.2,0-0.3c0-2.5,0-4.9,0-7.4c0-0.2,0-0.4,0-0.6
				c0.3,0,0.6-0.1,0.8-0.1c3.6,0,7.3,0,10.9,0c0.3,0,0.5,0,0.8-0.1v-1.3c-0.2,0-0.4,0-0.6,0c-4.2,0-8.4,0-12.7,0
				c-0.2,0-0.4,0-0.7,0.1V11v13.3c0,2.2,0,4.4,0,6.6c0,0.2,0,0.5,0.1,0.7h1.3v-3.3c0-1.1,0-2.2,0-3.3c0-1.1,0-2.2,0-3.4h2.4h2.5
				c0.8,0,1.6,0,2.4,0c0.8,0,1.6,0,2.4,0V20.1z"/>
			<path style="clip-path:url(#SVGID_00000046325272753001066950000009832206145007387534_);fill:#FFFFFF;" d="M124.4,18.7
				c-0.2,0.1-0.3,0.2-0.3,0.3c-0.9,1-1.8,2-2.8,2.9c-0.2,0.2-0.2,0.5-0.2,0.7c0,2.9,0,5.7,0,8.6c0,0.4,0.1,0.6,0.4,0.9
				c0.9,0.9,1.8,1.8,2.7,2.7c0.1,0.1,0.2,0.2,0.3,0.3V18.7z"/>
			<path style="clip-path:url(#SVGID_00000046325272753001066950000009832206145007387534_);fill:#676259;" d="M195.8,30.2
				c0-0.3,0-0.6,0-0.8c0-1.2,0-2.4,0-3.7c0-5,0-10,0-14.9c0-0.3,0-0.5-0.1-0.8h-1.3v21.4c0.7,0.1,9.3,0.1,9.7,0v-1.3H195.8z"/>
			<path style="clip-path:url(#SVGID_00000046325272753001066950000009832206145007387534_);fill:#FFFFFF;" d="M116.5,16.5
				c0.8-0.8,1.6-1.6,2.4-2.4c0,0-0.1-0.1-0.1-0.2c-3-3-6-6-9.1-9c0,0,0,0-0.1,0c0,0,0,0-0.1,0c0,0.1,0,0.3,0,0.4c0,1.2,0,2.4,0,3.6
				c0,0.4,0.1,0.7,0.4,0.9c2.1,2.1,4.2,4.2,6.3,6.3C116.3,16.3,116.4,16.4,116.5,16.5"/>
			<path style="clip-path:url(#SVGID_00000046325272753001066950000009832206145007387534_);fill:#676259;" d="M88.8,52.2
				c0,0,0,0.1,0.1,0.1c0.1,0.1,0.3,0.2,0.4,0.2c0.1,0,0.2-0.2,0.2-0.4c0-0.2,0-0.4-0.1-0.6c0-0.2-0.2-0.3-0.4-0.2
				c-0.1,0-0.2,0.1-0.3,0.2c-0.4,0.4-1,0.5-1.5,0.6c-0.2,0-0.4,0-0.7-0.1c0.2-0.3,0.2-0.5,0.4-0.6c0.3-0.4,0.7-0.7,1.2-0.9
				c0.5-0.2,1-0.3,1.5,0c0,0,0.1,0.1,0.2,0.1c0.2,0,0.3-0.1,0.4-0.2c0.1-0.1,0-0.3-0.1-0.4c-0.2-0.3-0.5-0.4-0.8-0.4
				c-0.8,0-1.5,0.2-2.1,0.6c-0.2,0.2-0.5,0.3-0.8,0.3c-1.5,0.2-3,0.4-4.5,0.5c-0.3,0-0.6,0-1,0.1c0.7-2.6,1.3-5.1,1.6-7.6
				c-0.6,0-0.6,0.1-0.7,0.6c-0.3,2.2-0.9,4.4-1.4,6.6c-0.2,0.6-0.2,0.6-0.8,0.7c-1.2,0.1-2.4,0.1-3.6,0.1c-0.1,0-0.3,0-0.5,0
				c0.3-1,0.6-1.9,0.8-2.8c0.3-0.9,0.6-1.8,0.8-2.8c-0.4,0-0.6,0.1-0.7,0.4c-0.1,0.2-0.1,0.4-0.2,0.6c-0.4,1.3-0.8,2.7-1.2,4
				c-0.2,0.7-0.2,0.7-0.9,0.7c-1.1,0-2.2,0-3.3,0c-0.2,0-0.4-0.1-0.5,0.2c0.2,0.2,0.4,0.2,0.6,0.2c1,0,2,0.1,3,0.1
				c0.2,0,0.4,0,0.7,0.1c-0.2,0.5-0.3,1-0.4,1.4c-0.1,0.5-0.4,0.9-0.4,1.4c0.3,0.1,0.4-0.1,0.5-0.4c0.3-0.7,0.5-1.3,0.8-2
				c0.2-0.5,0.2-0.5,0.7-0.5c1.3,0,2.5-0.1,3.8-0.1c0.1,0,0.2,0,0.4,0.1c-0.2,0.7-0.4,1.3-0.7,2c0.4,0.1,0.5-0.1,0.6-0.3
				c0.2-0.4,0.4-0.9,0.5-1.3c0.1-0.4,0.4-0.5,0.8-0.6c1.2-0.1,2.3-0.3,3.4-0.4c0.6-0.1,1.1-0.2,1.7-0.3c-0.1,0.2-0.1,0.2-0.1,0.3
				C86,51.7,85.7,52,86,52.4c0.3,0.4,0.7,0.3,1.1,0.2C87.6,52.5,88.1,52.4,88.8,52.2"/>
			<path style="clip-path:url(#SVGID_00000046325272753001066950000009832206145007387534_);fill:#676259;" d="M144.6,45.2
				c-0.2,1.4-0.4,2.9-0.6,4.3c-0.2,1.4-0.5,2.8-0.6,4.3c0.4-0.1,0.4-0.3,0.4-0.5c0.3-1.5,0.6-3.1,0.9-4.6c0.2-1.1,0.2-2.3,0.3-3.5
				c0.1,0,0.3,0,0.4,0c2.5-0.1,5-0.2,7.5-0.3c0.5,0,1.1,0,1.6-0.1c0.2,0,0.4,0,0.4-0.3c-0.2,0-0.3-0.1-0.5-0.1
				c-3.3-0.1-6.7-0.1-10,0.2c-2.1,0.2-4.1,0.5-6.2,0.8c-0.8,0.1-1.5,0.3-2.3,0.4c-0.2,0-0.4,0.1-0.3,0.5c1.5-0.2,3-0.4,4.5-0.6
				C141.7,45.4,143.2,45.3,144.6,45.2"/>
			<path style="clip-path:url(#SVGID_00000046325272753001066950000009832206145007387534_);fill:#676259;" d="M102.8,50.1
				c0,0.2,0.1,0.4,0.1,0.5c0.1,0.6,0.1,1.2,0.2,1.7c0,0.2,0.1,0.4,0.2,0.5c0.1,0.1,0.3,0.2,0.4,0.1c0.1,0,0.2-0.2,0.2-0.3
				c0-0.1,0-0.3-0.1-0.4c-0.2-1.3-0.4-2.5-0.2-3.8c0.1-0.7,0.2-1.3,0.3-2c0-0.2,0.1-0.4-0.2-0.5c-0.2,0-0.4,0.1-0.4,0.3
				c-0.1,0.2-0.1,0.4-0.1,0.6c-0.3,1.2-0.6,2.3-1.2,3.4c-0.8,1.4-2,2.1-3.5,2.5c-0.2,0-0.4,0-0.6,0c-0.6-0.1-0.8-0.5-0.5-1
				c0.1-0.2,0.3-0.3,0.4-0.5c0.5-0.4,1-0.7,1.7-0.8c0.6-0.1,1.2-0.1,1.8-0.1c0.2,0,0.4,0.1,0.5-0.2c-0.2-0.3-0.5-0.3-0.8-0.3
				c-1.4-0.1-2.7,0.4-3.8,1.3c-0.2,0.2-0.3,0.4-0.4,0.6c-0.4,0.7-0.1,1.4,0.7,1.6c0.4,0.1,0.8,0.1,1.2,0c1.7-0.4,3-1.2,3.9-2.7
				C102.6,50.5,102.6,50.3,102.8,50.1"/>
			<path style="clip-path:url(#SVGID_00000046325272753001066950000009832206145007387534_);fill:#676259;" d="M124.9,50.3
				c0,0,0.1,0,0.1,0c0,0.2,0,0.4,0.1,0.6c0.1,0.6,0.2,1.2,0.3,1.8c0,0.2,0.1,0.5,0.4,0.4c0.3-0.1,0.3-0.3,0.2-0.5
				c0-0.1,0-0.2-0.1-0.3c-0.3-1.4-0.4-2.9-0.1-4.3c0.1-0.5,0.2-1,0.3-1.5c0-0.1-0.1-0.3-0.1-0.3c-0.1,0-0.3,0-0.4,0.1
				c-0.1,0.1-0.1,0.2-0.2,0.4c-0.1,0.4-0.2,0.8-0.3,1.3c-0.2,1-0.6,1.9-1.2,2.8c-0.8,1.3-2,1.9-3.4,2.2c-0.6,0.1-1,0-1.1-0.4
				c-0.2-0.5,0.2-0.8,0.5-1.1c0.5-0.4,1.1-0.8,1.7-0.9c0.6-0.1,1.2-0.1,1.8-0.1c0.2,0,0.4,0.1,0.5-0.2c-0.3-0.3-0.4-0.4-0.8-0.4
				c-1.4-0.1-2.6,0.4-3.7,1.3c-0.3,0.2-0.5,0.5-0.6,0.8c-0.2,0.6,0,1.2,0.7,1.4c0.4,0.1,0.8,0.2,1.2,0.1c1.6-0.3,3-1.1,3.9-2.6
				C124.7,50.6,124.8,50.4,124.9,50.3"/>
			<path style="clip-path:url(#SVGID_00000046325272753001066950000009832206145007387534_);fill:#676259;" d="M108,51.7
				c0.2,0.4,0.4,0.7,0.6,1c0.4,0.5,0.7,0.6,1.3,0.3c0.5-0.3,1.1-0.6,1.6-0.9c1-0.6,1-0.6,1.8,0.3c0.2,0.2,0.5,0.3,0.6,0.1
				c0.2-0.2,0.1-0.4,0-0.6c-0.5-0.8-1.3-1-2.2-0.5c-0.6,0.3-1.1,0.6-1.7,0.9c-0.6,0.3-0.9,0.2-1.2-0.4c-0.1-0.1-0.1-0.2-0.1-0.4
				c-0.1-0.4-0.2-0.5-0.7-0.3c-0.6,0.3-1.1,0.6-1.7,0.9c-0.2,0.1-0.3,0.2-0.6,0.3c0.1-0.5,0.1-0.9,0.1-1.2c0-0.2,0.1-0.3,0.1-0.5
				c0-0.1-0.1-0.2-0.1-0.2c-0.1,0-0.2,0-0.2,0.1c-0.1,0-0.1,0.1-0.1,0.2c-0.1,0.7-0.2,1.3-0.3,2c0,0.1,0,0.3,0.1,0.4
				c0.1,0.1,0.3,0,0.4,0c0.4-0.2,0.7-0.5,1.1-0.7C107.1,52.2,107.5,52,108,51.7"/>
			<path style="clip-path:url(#SVGID_00000046325272753001066950000009832206145007387534_);fill:#676259;" d="M91.7,50.4
				c-0.4,0-0.4,0.1-0.5,0.4C91.1,51.4,91,52,91,52.7c0,0.2,0,0.4,0.1,0.5c0.2,0.2,0.3-0.1,0.5-0.2c0.2-0.2,0.3-0.4,0.5-0.6
				c0.6-0.6,1.3-1.3,1.9-1.9c0.2-0.2,0.4-0.2,0.7-0.4c0.1,0.3,0.1,0.6,0.2,0.8c0.1,0.4,0.1,0.7,0.2,1.1c0,0.1,0.1,0.3,0.1,0.4
				c0.1,0.2,0.3,0.3,0.5,0.2c0.2-0.1,0.1-0.3,0.1-0.4c-0.1-0.4-0.2-0.9-0.3-1.3c-0.1-0.3-0.1-0.5-0.2-0.8c-0.1-0.4-0.3-0.5-0.7-0.5
				c-0.3,0.1-0.6,0.2-0.8,0.4c-0.6,0.5-1.2,1.1-1.7,1.6c-0.1,0.1-0.2,0.3-0.4,0.3V50.4z"/>
			<path style="clip-path:url(#SVGID_00000046325272753001066950000009832206145007387534_);fill:#676259;" d="M115.1,52.1
				c0-0.1,0-0.2,0-0.2c0.4-1.1,2-1.7,3-1.3c0.1,0,0.1,0.1,0.2,0.1c0.1,0,0.3,0,0.4-0.1c0.1-0.1,0.1-0.3,0-0.4
				c-0.2-0.3-0.5-0.4-0.8-0.4c-0.4,0-0.8,0-1.2,0.2c-1,0.3-1.7,1-2.1,2c-0.2,0.4,0,0.7,0.4,0.7c0.2,0,0.5,0.1,0.7,0
				c0.6-0.1,1.1-0.3,1.8-0.4c0,0,0,0.1,0.1,0.1c0.1,0.1,0.2,0.1,0.4,0.2c0.1-0.1,0.2-0.3,0.2-0.4c0-0.3-0.1-0.5-0.1-0.7
				c-0.3-0.2-0.5,0-0.7,0.2C116.6,52,115.9,52.2,115.1,52.1"/>
			<path style="clip-path:url(#SVGID_00000046325272753001066950000009832206145007387534_);fill:#676259;" d="M150.7,47.1
				c-0.2-0.2-0.4-0.3-0.5-0.4c-0.2-0.1-0.4-0.1-0.4,0.1c-0.1,0.1-0.1,0.3,0,0.5c0.1,0.2,0.4,0.3,0.6,0.2
				C150.4,47.4,150.5,47.3,150.7,47.1"/>
			<path style="clip-path:url(#SVGID_00000046325272753001066950000009832206145007387534_);fill:#676158;" d="M115.9,35v-0.5
				c0-4.8,0-9.5,0-14.3c0-0.4,0.1-0.7,0.4-1c4.7-4.6,9.4-9.2,14.1-13.8c0.2-0.2,0.3-0.3,0.6-0.5c0,0.3,0.1,0.4,0.1,0.6
				c0,1.2,0,2.4,0,3.6c0,0.4-0.1,0.7-0.4,0.9c-3.5,3.4-6.9,6.8-10.4,10.2c-0.2,0.2-0.4,0.4-0.6,0.6c-0.3,0.3-0.4,0.6-0.4,1
				c0,1.6,0,3.2,0,4.7c0,1.6,0,3.2,0,4.8c0,0.3-0.1,0.6-0.3,0.9c-1,1-2,2-2.9,2.9C115.9,35,115.9,35,115.9,35"/>
			<path style="clip-path:url(#SVGID_00000046325272753001066950000009832206145007387534_);fill:#676259;" d="M82.7,10
				c3.7,5.2,7.4,10.4,11.1,15.7c0.6-0.8,1.1-1.5,1.6-2.3c0.5-0.7,1-1.5,1.5-2.2c0.5-0.7,1-1.5,1.6-2.2c0.5-0.7,1-1.5,1.5-2.2
				c0.5-0.7,1-1.5,1.6-2.2c0.5-0.7,1-1.5,1.5-2.2c0.5-0.7,1-1.5,1.6-2.3c0.1,0.5,0.2,20.7,0,21.5h-1.3c0-0.2,0-0.5,0-0.7
				c0-5.2,0-10.3,0-15.5c0-0.2,0-0.5,0-0.7c-0.1,0-0.1,0-0.1,0c0,0,0,0-0.1,0c0,0-0.1,0-0.1,0.1c0,0,0,0,0,0c0,0,0,0.1-0.1,0.1
				c0,0,0,0.1-0.1,0.1c-3,4.3-6,8.6-9,12.9c0,0,0,0.1-0.1,0.1c0,0,0,0,0,0c0,0,0,0-0.1,0.1c-3.2-4.5-6.4-9-9.6-13.5c0,0-0.1,0-0.1,0
				c0,0.2,0,0.5,0,0.7c0,3.7,0,7.5,0,11.2c0,1.4,0,2.9,0,4.3c0,0.2,0,0.4,0,0.7h-1.2C82.6,31.2,82.6,10.9,82.7,10"/>
			<path style="clip-path:url(#SVGID_00000046325272753001066950000009832206145007387534_);fill:#676259;" d="M186,19.9
				c0.3,0.1,0.5,0.2,0.7,0.3c0.9,0.3,1.6,0.8,2.3,1.4c2.7,2.5,2.2,6.4-0.5,8.5c-1.3,1-2.9,1.5-4.5,1.6c-2.6,0-5.2,0-7.9,0
				c-0.1,0-0.2,0-0.3,0V10.1c0.2,0,0.4,0,0.6,0c1.8,0,3.7,0,5.5,0c1.1,0,2.2,0.1,3.2,0.6c1.9,0.9,3.1,2.3,3.3,4.4
				c0.2,1.8-0.5,3.3-1.9,4.4C186.3,19.6,186.2,19.7,186,19.9 M177.1,30.2c0.3,0,0.5,0,0.8,0c1.8,0,3.6,0,5.5,0c0.4,0,0.8,0,1.2-0.1
				c1.4-0.2,2.7-0.8,3.6-1.8c1.4-1.5,1.5-3.6,0.3-5.1c-0.6-0.8-1.4-1.4-2.4-1.8c-1.1-0.4-2.2-0.5-3.3-0.5c-1.7,0-3.4,0-5.1,0
				c-0.2,0-0.4,0-0.6,0.1V30.2z M177.1,19.4c0.1,0,0.1,0.1,0.2,0.1c1.9,0,3.8,0,5.7,0c0.7,0,1.5-0.3,2.1-0.7
				c2.8-1.8,2.2-4.8,0.4-6.2c-0.8-0.6-1.8-1-2.8-1c-1.7-0.1-3.4,0-5.1,0c-0.1,0-0.3,0.1-0.4,0.1V19.4z"/>
			<path style="clip-path:url(#SVGID_00000046325272753001066950000009832206145007387534_);fill:#676259;" d="M48.4,31.8
				c-5.9,0-10.9-4.9-10.9-11c0-6.3,5.1-11,11-11c5.5,0,10.9,4.4,10.9,11.1C59.3,27.5,53.9,31.9,48.4,31.8 M38.8,20.8
				c0,5.6,4.7,9.6,9.4,9.6c5,0.1,9.6-4.1,9.7-9.5c0-5.2-4.1-9.7-9.5-9.7C43.2,11.2,38.9,15.5,38.8,20.8"/>
			<path style="clip-path:url(#SVGID_00000046325272753001066950000009832206145007387534_);fill:#676259;" d="M64.8,11.5v20.1
				c-0.5,0.1-0.9,0.1-1.4,0V10.1c0.2,0,0.4,0,0.6,0c2.2,0,4.5,0,6.7,0c1.1,0,2.2,0.2,3.3,0.6c1.6,0.7,2.9,1.8,3.6,3.4
				c0.7,1.8,0.5,3.5-0.6,5.1c-1.2,1.7-3,2.6-5.1,2.8c-0.5,0-1.1,0.1-1.6,0.1c0,0.1,0,0.1,0,0.1c0,0,0,0,0,0.1c0,0,0,0.1,0,0.1
				c0,0,0,0.1,0.1,0.1c2.5,3,4.9,6,7.4,9c0,0,0,0,0,0.1c-0.5,0.1-1.1,0.1-1.6,0c-0.1,0-0.3-0.2-0.4-0.3c-1-1.2-2-2.4-3-3.6
				c-1.7-2.1-3.4-4.2-5.1-6.3c-0.1-0.2-0.2-0.3-0.5-0.6c0.4,0,0.6,0,0.9,0c1.4,0,2.8,0,4.2-0.2c1.4-0.2,2.5-0.8,3.4-2
				c1.3-1.7,1.2-3.8-0.2-5.3c-1.1-1.2-2.6-1.8-4.2-1.9c-2.1-0.1-4.1,0-6.2,0C65.1,11.4,65,11.5,64.8,11.5"/>
			<path style="clip-path:url(#SVGID_00000046325272753001066950000009832206145007387534_);fill:#676259;" d="M135,31.6V10.1
				c0.2,0,0.4-0.1,0.5-0.1c2,0,4-0.1,6,0c4.1,0.1,7.1,2.1,8.9,5.7c2,3.9,1.5,9.1-1.7,12.7c-1.9,2.1-4.3,3.1-7,3.2
				c-2.1,0.1-4.2,0-6.3,0C135.2,31.6,135.1,31.6,135,31.6 M136.3,30.2c0.2,0,0.4,0.1,0.5,0.1c1.5,0,3,0,4.5,0
				c3.2-0.1,5.7-1.5,7.4-4.2c1.5-2.4,1.7-5,1.1-7.8c-0.9-3.9-4.1-6.7-8.1-6.8c-1.6,0-3.3,0-4.9,0c-0.1,0-0.3,0.1-0.4,0.1V30.2z"/>
			<path style="clip-path:url(#SVGID_00000046325272753001066950000009832206145007387534_);fill:#676259;" d="M172.1,31.6
				C172.1,31.6,172,31.6,172.1,31.6c-1.4,0.1-1.4,0.1-1.9-1.1c-0.6-1.3-1.2-2.6-1.7-3.9c-0.1-0.3-0.3-0.5-0.7-0.5
				c-3.5,0-7.1,0-10.6,0c-0.4,0-0.6,0.1-0.7,0.5c-0.7,1.5-1.4,3-2.1,4.6c-0.2,0.4-0.4,0.5-0.8,0.5c-0.3,0-0.6,0-1,0
				c3.4-7.3,6.7-14.4,10.1-21.6C162.9,10.4,171.9,30.9,172.1,31.6 M167.5,24.7c-0.1-0.6-4.7-10.9-5-11.2c-0.6,1.3-1.2,2.5-1.7,3.7
				c-0.6,1.2-1.2,2.5-1.7,3.7c-0.6,1.2-1.2,2.4-1.7,3.8H167.5z"/>
			<path style="clip-path:url(#SVGID_00000046325272753001066950000009832206145007387534_);fill:#676259;" d="M209.1,20.1h7.5
				c0.2,0.5,0.1,0.9,0.1,1.4c-0.3,0-0.5,0-0.7,0c-2.1,0-4.1,0-6.2,0h-0.6c-0.2,0.6-0.2,8,0,8.6c3,0,6,0,9,0c0.1,0.5,0.1,0.9,0,1.4
				c-3.5,0-7,0-10.4,0c-0.1-0.5-0.2-20.8,0-21.5c0.4-0.1,9.7-0.2,10.4,0v1.3c-0.2,0-0.5,0.1-0.7,0.1c-2.5,0-5.1,0-7.6,0h-0.7
				C209,12,208.9,19.4,209.1,20.1"/>
			<path style="clip-path:url(#SVGID_00000046325272753001066950000009832206145007387534_);fill:#676259;" d="M32.9,20.1v1.4
				c-0.8,0-1.6,0-2.4,0c-0.8,0-1.6,0-2.4,0h-2.5h-2.4c-0.1,1.2,0,2.3,0,3.4c0,1.1,0,2.2,0,3.3v3.3h-1.3c0-0.2-0.1-0.5-0.1-0.7
				c0-2.2,0-4.4,0-6.6V11v-0.9c0.3,0,0.5-0.1,0.7-0.1c4.2,0,8.4,0,12.7,0c0.2,0,0.3,0,0.6,0v1.3c-0.2,0-0.5,0.1-0.8,0.1
				c-3.6,0-7.3,0-10.9,0c-0.3,0-0.5,0-0.8,0.1c0,0.2,0,0.4,0,0.6c0,2.5,0,4.9,0,7.4c0,0.1,0,0.2,0,0.3c0,0.2,0.1,0.3,0.3,0.3
				c0.2,0,0.3,0,0.5,0c2.8,0,5.5,0,8.3,0H32.9z"/>
			<path style="clip-path:url(#SVGID_00000046325272753001066950000009832206145007387534_);fill:#BE9600;" d="M124.4,18.7v16.3
				c-0.1-0.1-0.2-0.2-0.3-0.3c-0.9-0.9-1.8-1.8-2.7-2.7c-0.3-0.2-0.4-0.5-0.4-0.9c0-2.9,0-5.7,0-8.6c0-0.3,0-0.5,0.2-0.7
				c0.9-1,1.9-2,2.8-2.9C124.1,18.9,124.2,18.8,124.4,18.7"/>
			<path style="clip-path:url(#SVGID_00000046325272753001066950000009832206145007387534_);fill:#676259;" d="M195.8,30.2h8.3v1.3
				c-0.4,0.1-9,0.1-9.7,0V10.1h1.3c0,0.3,0.1,0.5,0.1,0.8c0,5,0,10,0,14.9c0,1.2,0,2.4,0,3.7C195.7,29.7,195.8,29.9,195.8,30.2"/>
			<path style="clip-path:url(#SVGID_00000046325272753001066950000009832206145007387534_);fill:#BE9600;" d="M116.5,16.5
				c-0.1-0.1-0.2-0.1-0.3-0.3c-2.1-2.1-4.2-4.2-6.3-6.3c-0.3-0.3-0.4-0.6-0.4-0.9c0-1.2,0-2.4,0-3.6c0-0.1,0-0.3,0-0.4
				c0,0,0.1,0,0.1,0c0,0,0,0,0.1,0c3,3,6,6,9.1,9c0.1,0.1,0.1,0.1,0.1,0.2C118,14.9,117.3,15.7,116.5,16.5"/>
			<path style="clip-path:url(#SVGID_00000046325272753001066950000009832206145007387534_);fill:#676259;" d="M88.8,52.2
				c-0.6,0.2-1.1,0.3-1.7,0.4c-0.4,0.1-0.8,0.1-1.1-0.2c-0.3-0.4,0-0.7,0.2-1.1c0-0.1,0.1-0.2,0.1-0.3c-0.6,0.1-1.2,0.2-1.7,0.3
				c-1.1,0.1-2.3,0.3-3.4,0.4c-0.4,0-0.6,0.2-0.8,0.6c-0.1,0.5-0.4,0.9-0.5,1.3c-0.1,0.2-0.2,0.4-0.6,0.3c0.2-0.7,0.4-1.3,0.7-2
				c-0.2,0-0.3-0.1-0.4-0.1c-1.3,0-2.5,0.1-3.8,0.1c-0.6,0-0.5,0-0.7,0.5c-0.3,0.7-0.5,1.3-0.8,2c-0.1,0.2-0.2,0.4-0.5,0.4
				c0-0.5,0.3-0.9,0.4-1.4c0.1-0.5,0.3-0.9,0.4-1.4c-0.3,0-0.5-0.1-0.7-0.1c-1,0-2-0.1-3-0.1c-0.2,0-0.4,0-0.6-0.2
				c0.1-0.3,0.3-0.2,0.5-0.2c1.1,0,2.2,0,3.3,0c0.7,0,0.7,0,0.9-0.7c0.4-1.3,0.8-2.7,1.2-4c0.1-0.2,0.1-0.4,0.2-0.6
				c0.1-0.3,0.3-0.4,0.7-0.4c-0.2,1-0.5,1.9-0.8,2.8c-0.3,0.9-0.5,1.8-0.8,2.8c0.2,0,0.4,0,0.5,0c1.2,0,2.4-0.1,3.6-0.1
				c0.6,0,0.6,0,0.8-0.7c0.6-2.2,1.1-4.3,1.4-6.6c0.1-0.5,0.2-0.6,0.7-0.6c-0.3,2.6-0.9,5.1-1.6,7.6c0.4,0,0.7,0,1-0.1
				c1.5-0.2,3-0.4,4.5-0.5c0.3,0,0.5-0.1,0.8-0.3c0.6-0.5,1.3-0.7,2.1-0.6c0.3,0,0.6,0.1,0.8,0.4c0.1,0.1,0.1,0.3,0.1,0.4
				c-0.1,0.1-0.3,0.1-0.4,0.2c0,0-0.1,0-0.2-0.1c-0.5-0.3-1-0.2-1.5,0c-0.5,0.2-0.9,0.5-1.2,0.9c-0.1,0.2-0.2,0.3-0.4,0.6
				c0.3,0,0.5,0.1,0.7,0.1c0.6-0.1,1.1-0.3,1.5-0.6c0.1-0.1,0.2-0.2,0.3-0.2c0.2-0.1,0.3,0,0.4,0.2c0,0.2,0.1,0.4,0.1,0.6
				c0,0.1-0.1,0.3-0.2,0.4c-0.1,0-0.2-0.1-0.4-0.2C88.8,52.3,88.8,52.2,88.8,52.2"/>
			<path style="clip-path:url(#SVGID_00000046325272753001066950000009832206145007387534_);fill:#676259;" d="M144.6,45.2
				c-1.5,0.1-3,0.2-4.5,0.4c-1.5,0.2-3,0.4-4.5,0.6c-0.1-0.4,0.1-0.4,0.3-0.5c0.8-0.1,1.5-0.3,2.3-0.4c2.1-0.3,4.1-0.6,6.2-0.8
				c3.3-0.3,6.7-0.4,10-0.2c0.2,0,0.3,0.1,0.5,0.1c0,0.3-0.2,0.3-0.4,0.3c-0.5,0-1.1,0-1.6,0.1c-2.5,0.1-5,0.2-7.5,0.3
				c-0.1,0-0.3,0-0.4,0c-0.1,1.2-0.2,2.3-0.3,3.5c-0.2,1.6-0.6,3.1-0.9,4.6c0,0.2-0.1,0.4-0.4,0.5c0.1-1.5,0.4-2.9,0.6-4.3
				C144.3,48,144.4,46.6,144.6,45.2"/>
			<path style="clip-path:url(#SVGID_00000046325272753001066950000009832206145007387534_);fill:#676259;" d="M102.8,50.1
				c-0.1,0.2-0.2,0.3-0.3,0.4c-0.9,1.5-2.2,2.4-3.9,2.7c-0.4,0.1-0.8,0.1-1.2,0c-0.8-0.2-1.1-0.9-0.7-1.6c0.1-0.2,0.3-0.4,0.4-0.6
				c1.1-0.9,2.3-1.4,3.8-1.3c0.3,0,0.6,0.1,0.8,0.3c-0.1,0.3-0.3,0.2-0.5,0.2c-0.6,0-1.2,0-1.8,0.1c-0.6,0.1-1.2,0.4-1.7,0.8
				c-0.2,0.1-0.3,0.3-0.4,0.5c-0.3,0.5-0.1,1,0.5,1c0.2,0,0.4,0,0.6,0c1.5-0.3,2.7-1.1,3.5-2.5c0.6-1.1,0.9-2.2,1.2-3.4
				c0-0.2,0.1-0.4,0.1-0.6c0.1-0.2,0.2-0.3,0.4-0.3c0.3,0.1,0.2,0.3,0.2,0.5c-0.1,0.7-0.2,1.3-0.3,2c-0.2,1.3-0.1,2.5,0.2,3.8
				c0,0.1,0.1,0.3,0.1,0.4c0,0.1-0.1,0.3-0.2,0.3c-0.1,0-0.3,0-0.4-0.1c-0.1-0.1-0.1-0.3-0.2-0.5c-0.1-0.6-0.2-1.2-0.2-1.7
				C102.9,50.5,102.8,50.4,102.8,50.1"/>
			<path style="clip-path:url(#SVGID_00000046325272753001066950000009832206145007387534_);fill:#676259;" d="M124.9,50.3
				c-0.1,0.2-0.2,0.3-0.3,0.5c-0.9,1.5-2.3,2.3-3.9,2.6c-0.4,0.1-0.8,0-1.2-0.1c-0.6-0.2-0.9-0.8-0.7-1.4c0.1-0.3,0.3-0.6,0.6-0.8
				c1.1-0.9,2.3-1.4,3.7-1.3c0.4,0,0.6,0.1,0.8,0.4c-0.1,0.3-0.3,0.2-0.5,0.2c-0.6,0-1.2,0-1.8,0.1c-0.6,0.1-1.2,0.4-1.7,0.9
				c-0.3,0.3-0.7,0.6-0.5,1.1c0.1,0.4,0.5,0.5,1.1,0.4c1.4-0.3,2.6-0.9,3.4-2.2c0.5-0.9,0.9-1.8,1.2-2.8c0.1-0.4,0.2-0.8,0.3-1.3
				c0-0.1,0.1-0.3,0.2-0.4c0.1-0.1,0.3-0.1,0.4-0.1c0.1,0,0.1,0.2,0.1,0.3c-0.1,0.5-0.2,1-0.3,1.5c-0.3,1.4-0.2,2.9,0.1,4.3
				c0,0.1,0,0.2,0.1,0.3c0.1,0.2,0.1,0.5-0.2,0.5c-0.3,0.1-0.4-0.2-0.4-0.4c-0.1-0.6-0.2-1.2-0.3-1.8c0-0.2,0-0.4-0.1-0.6
				C125,50.3,124.9,50.3,124.9,50.3"/>
			<path style="clip-path:url(#SVGID_00000046325272753001066950000009832206145007387534_);fill:#676259;" d="M108,51.7
				c-0.5,0.2-0.9,0.4-1.3,0.7c-0.4,0.2-0.7,0.5-1.1,0.7c-0.1,0.1-0.3,0.1-0.4,0c-0.1-0.1-0.2-0.3-0.1-0.4c0.1-0.7,0.2-1.4,0.3-2
				c0-0.1,0-0.2,0.1-0.2c0.1-0.1,0.2-0.1,0.2-0.1c0.1,0,0.1,0.1,0.1,0.2c0,0.2,0,0.3-0.1,0.5c0,0.4-0.1,0.7-0.1,1.2
				c0.3-0.2,0.4-0.3,0.6-0.3c0.6-0.3,1.1-0.6,1.7-0.9c0.4-0.2,0.5-0.1,0.7,0.3c0,0.1,0.1,0.3,0.1,0.4c0.3,0.6,0.6,0.7,1.2,0.4
				c0.6-0.3,1.1-0.6,1.7-0.9c0.9-0.4,1.7-0.2,2.2,0.5c0.1,0.2,0.2,0.4,0,0.6c-0.2,0.2-0.4,0.1-0.6-0.1c-0.8-0.8-0.8-0.8-1.8-0.3
				c-0.5,0.3-1.1,0.6-1.6,0.9c-0.6,0.3-0.9,0.2-1.3-0.3C108.4,52.5,108.2,52.1,108,51.7"/>
			<path style="clip-path:url(#SVGID_00000046325272753001066950000009832206145007387534_);fill:#676259;" d="M91.7,50.4v1.4
				c0.3,0,0.3-0.2,0.4-0.3c0.6-0.5,1.1-1.1,1.7-1.6c0.2-0.2,0.5-0.3,0.8-0.4c0.4-0.1,0.6,0,0.7,0.5c0.1,0.3,0.1,0.5,0.2,0.8
				c0.1,0.4,0.2,0.9,0.3,1.3c0,0.2,0.2,0.3-0.1,0.4c-0.2,0.1-0.4,0-0.5-0.2c-0.1-0.1-0.1-0.2-0.1-0.4c-0.1-0.4-0.1-0.7-0.2-1.1
				c0-0.2-0.1-0.5-0.2-0.8c-0.3,0.2-0.5,0.3-0.7,0.4c-0.7,0.6-1.3,1.3-1.9,1.9c-0.2,0.2-0.3,0.4-0.5,0.6c-0.1,0.1-0.3,0.3-0.5,0.2
				c-0.1-0.1-0.2-0.3-0.1-0.5c0.1-0.6,0.2-1.3,0.3-1.9C91.3,50.5,91.3,50.3,91.7,50.4"/>
			<path style="clip-path:url(#SVGID_00000046325272753001066950000009832206145007387534_);fill:#676259;" d="M115.1,52.1
				c0.8,0.1,1.4-0.1,2-0.6c0.2-0.1,0.4-0.4,0.7-0.2c0,0.2,0.1,0.5,0.1,0.7c0,0.1-0.1,0.3-0.2,0.4c-0.1-0.1-0.3-0.1-0.4-0.2
				c-0.1,0-0.1-0.1-0.1-0.1c-0.7,0.2-1.2,0.3-1.8,0.4c-0.2,0-0.5,0-0.7,0c-0.4-0.1-0.6-0.3-0.4-0.7c0.4-1,1.1-1.7,2.1-2
				c0.4-0.1,0.8-0.1,1.2-0.2c0.3,0,0.6,0.2,0.8,0.4c0.1,0.1,0.2,0.3,0,0.4c-0.1,0.1-0.3,0.1-0.4,0.1c0,0-0.1,0-0.2-0.1
				c-1.1-0.5-2.6,0.2-3,1.3C115.1,51.9,115.1,52,115.1,52.1"/>
			<path style="clip-path:url(#SVGID_00000046325272753001066950000009832206145007387534_);fill:#676259;" d="M150.7,47.1
				c-0.2,0.2-0.3,0.3-0.4,0.3c-0.2,0.1-0.5,0.1-0.6-0.2c-0.1-0.1-0.1-0.3,0-0.5c0.1-0.2,0.3-0.1,0.4-0.1
				C150.3,46.9,150.5,47,150.7,47.1"/>
			<path style="clip-path:url(#SVGID_00000046325272753001066950000009832206145007387534_);fill:#676259;" d="M169.5,52.7
				c-0.3-0.6-0.7-1.2-1-1.8c-0.3-0.6-0.3-0.8,0.2-1.3c0,0,0,0,0-0.1c-0.1,0-0.2-0.1-0.2-0.1c-0.4,0-0.8,0.3-0.8,0.8
				c0,0.5-0.2,0.7-0.7,0.9c-0.4,0.2-0.9,0.4-1.3,0.6c-0.9,0.4-1.9,0.7-2.8,0.8c-0.5,0.1-1,0-1.4-0.3c-0.5-0.3-0.6-0.8-0.3-1.3
				c0.2,0,0.4,0.1,0.6,0c0.3-0.1,0.6-0.1,0.8-0.3c0.2-0.1,0.4-0.4,0.3-0.7c-0.1-0.3-0.3-0.4-0.6-0.4c-0.4-0.1-0.8,0.1-1.1,0.3
				c-0.2,0.2-0.3,0.4-0.5,0.6c-0.1,0.1-0.2,0.3-0.4,0.4c-1.7,1.2-3.6,1.8-5.7,1.5c-0.9-0.1-1.9-0.6-1.7-2.1c0.2-1.4,0.9-2.5,1.9-3.4
				c0.4-0.3,0.8-0.5,1.3-0.8c0.2-0.1,0.4-0.1,0.6-0.1c0,0.5-0.2,0.7-0.3,1c-0.5,0.9-1.2,1.7-2,2.4c-0.1,0.1-0.3,0.2-0.4,0.4
				c0.4,0.2,0.6,0,0.8-0.1c0.9-0.7,1.7-1.4,2.3-2.4c0.2-0.3,0.3-0.5,0.4-0.8c0.2-0.7-0.1-1.1-0.8-1.1c-0.6,0-1.1,0.2-1.6,0.5
				c-1.6,1.1-2.6,2.6-2.7,4.7c0,0.3-0.1,0.5-0.3,0.7c-1,1.2-2.6,1.2-3.5-0.1c-0.1-0.1-0.1-0.3-0.3-0.4c-0.1-0.1-0.2-0.1-0.3-0.1
				c-0.1,0-0.1,0.2-0.1,0.3c0,0.1,0,0.2,0.1,0.3c0.4,1.1,1.7,1.8,2.9,1.5c0.5-0.1,1-0.4,1.4-0.8c0.1-0.1,0.2-0.2,0.4-0.4
				c0.3,0.6,0.7,1,1.3,1.2c0.4,0.1,0.8,0.2,1.3,0.3c1.7,0.1,3.3-0.4,4.8-1.2c0.1-0.1,0.3-0.1,0.4-0.2c0,0.1,0.1,0.2,0.1,0.2
				c0.2,0.9,0.7,1.3,1.6,1.4c0.5,0,1,0,1.5-0.1c1.3-0.3,2.4-0.8,3.6-1.4c0.2-0.1,0.4-0.2,0.5-0.3c0.6,0.8,1,1.6,1,2.1
				c-0.3,0-0.6-0.2-0.9-0.3c-0.4-0.2-0.5-0.2-0.8,0.3c0.5,0.5,1.1,0.6,1.7,0.7c0.4,0,0.8,0,1-0.3C169.9,53.3,169.7,53,169.5,52.7
				 M162.3,50c0,0.5-0.1,0.5-0.6,0.3C161.9,50.2,162,50.1,162.3,50"/>
			<path style="clip-path:url(#SVGID_00000046325272753001066950000009832206145007387534_);fill:#676259;" d="M129.8,52.5
				c-0.5,0.1-1,0-1.4-0.3c-0.5-0.3-0.6-0.7-0.4-1.3c0.2,0,0.4,0,0.6,0c0.4,0,0.7-0.1,0.9-0.3c0.2-0.2,0.3-0.4,0.2-0.7
				c-0.1-0.3-0.3-0.4-0.5-0.4c-0.5-0.1-0.9,0.1-1.2,0.4c-0.4,0.3-0.6,0.8-0.7,1.3c-0.2,1,0.4,1.8,1.4,1.9c0.6,0.1,1.2,0,1.7-0.1
				c1.5-0.3,2.9-1,4.3-1.8c0.1-0.1,0.2-0.1,0.3-0.2c0-0.1,0-0.2,0.1-0.3c-0.8,0.4-1.6,0.7-2.3,1.1C131.8,52.1,130.8,52.3,129.8,52.5
				 M129,49.9c-0.1,0.5-0.1,0.5-0.6,0.4C128.6,50.2,128.7,50.1,129,49.9"/>
		</g>
	</g>
</g>
</svg>
