<?xml version="1.0" encoding="utf-8"?>
<!-- Generator: Adobe Illustrator 28.0.0, SVG Export Plug-In . SVG Version: 6.00 Build 0)  -->
<svg version="1.1" id="Capa_1" xmlns="http://www.w3.org/2000/svg" xmlns:xlink="http://www.w3.org/1999/xlink" x="0px" y="0px"
	 viewBox="0 0 380.6 65.4" style="enable-background:new 0 0 380.6 65.4;" xml:space="preserve">
<style type="text/css">
	.st0{clip-path:url(#SVGID_00000065795114266596677140000016052106786070727084_);}
</style>
<g id="Grupo_388" transform="translate(0 65.386)">
	<g>
		<g>
			<defs>
				<rect id="SVGID_1_" y="-65.2" width="380.6" height="65.4"/>
			</defs>
			<clipPath id="SVGID_00000095309178842732687690000014340771864789989276_">
				<use xlink:href="#SVGID_1_"  style="overflow:visible;"/>
			</clipPath>
			<g id="Grupo_387" style="clip-path:url(#SVGID_00000095309178842732687690000014340771864789989276_);">
				<g id="Grupo_384" transform="translate(212.603 -61.789)">
					<path id="Trazado_214" d="M0,0.2h-2.3v11.4c-2.3-6-9.8-12.5-20.3-12.5c-14.2,0-23,10.8-23,22.7c0,11.7,8.6,22.7,23,22.7
						c9.2,0,16.3-4.5,20.3-12.5v7c0.3,11.2-8.6,20.5-19.8,20.8c-0.1,0-0.2,0-0.3,0c-4.6,0-9.1-1.6-12.8-4.5
						c-2.3-1.8-4.2-4.1-5.6-6.7h-2.6C-39.6,57.2-30.6,62-22,62c4.9-0.2,9.6-1.9,13.5-4.8C-3.8,53.6,0,47.8,0,38.7V0.2z M-43.3,21.9
						c0-12.2,9.2-20.6,20.8-20.6c7.7,0,12.8,3.3,16,7.4c2.8,3.8,4.4,8.3,4.5,13c0,5.5-2,10.7-5.8,14.7c-3.8,3.9-9.1,6.1-14.5,6
						C-36.5,42.5-43.2,31.7-43.3,21.9L-43.3,21.9z M7.8,43.5h2.3V19.8C10.1,8,15.5,1.3,24.7,1.3h0.7v-2.2
						c-3.8,0.2-11.2,0.7-15.3,9.3V0.2H7.8V43.5z M67.2,0.2h-2.3v24.9c0,11.4-7.3,17.2-17.6,17.3c-11.9,0.2-17.6-7.3-17.6-19V0.2
						h-2.3v23.3c0,13,6.5,20.8,19.4,21.1c7.7,0.1,15.2-3,18.2-10.5c-0.1,3.6-0.1,6.5-0.1,9.4h2.3L67.2,0.2z M75,60.9h2.3V32.1
						c2.3,6,9.8,12.5,20.3,12.5c14,0,22.8-10.8,22.8-22.7c0-11.7-8.6-22.7-22.8-22.7c-9.2,0-16.3,4.5-20.3,12.3V0.2H75V60.9z
						 M118.1,21.9c0.3,11.1-8.5,20.3-19.6,20.6c-0.3,0-0.6,0-0.9,0c-5.5,0.1-10.7-2-14.6-5.9c-3.8-3.9-6-9.2-5.9-14.6
						C77,16.5,79,11.2,82.8,7.2c3.9-3.9,9.1-6,14.5-6C111.3,1.3,118,12.1,118.1,21.9L118.1,21.9z M122.4,21.9
						c0,13,9.8,22.7,22.8,22.7S168,34.9,168,21.9c0-12.9-9.8-22.7-22.8-22.7S122.4,8.9,122.4,21.9L122.4,21.9z M124.7,21.9
						c0-11.8,8.8-20.6,20.5-20.6s20.5,8.8,20.5,20.6s-8.8,20.6-20.5,20.6c-11.1,0.2-20.3-8.5-20.5-19.6
						C124.7,22.5,124.7,22.2,124.7,21.9L124.7,21.9z"/>
				</g>
				<g id="Grupo_385" transform="translate(50.293 -17.021)">
					<path id="Trazado_215" d="M0,0.2v-46.9h-13.6v1.7c-3.8-2-8-3.1-12.3-3c-16.5,0-24.4,13-24.4,24.1s7.9,24.1,24.4,24.1
						c4.3,0.1,8.5-1,12.3-3v3H0z M-15-23.9c0,6.6-5,11.4-10.9,11.4s-10.9-4.8-10.9-11.4s5-11.4,10.9-11.4S-15-30.5-15-23.9"/>
				</g>
				<g id="Grupo_386" transform="translate(58.867 -3.351)">
					<path id="Trazado_216" d="M0,0.2h13.6V-19c1.6,1.7,5.5,5.6,13.6,5.6c12.9,0,22.1-10.7,22.1-23.8c0-10.5-6-24.7-22.1-24.7
						c-5.5-0.2-10.7,2.2-14.1,6.5h-0.2v-5H0V0.2z M24.4-26c-6.2,0-11.3-5-11.4-11.2c0-0.1,0-0.2,0-0.3c0-5.4,3.9-11.6,11.4-11.6
						s11.4,6.2,11.4,11.6C35.9-31.3,31-26.1,24.7-26C24.5-26,24.5-26,24.4-26 M86.8-29.1c-1.9,2.4-4.1,4.2-8.3,4.2
						c-5.3,0-9.8-3.2-10.6-8.6h34c0.2-1.2,0.3-2.4,0.3-3.6c0-13.8-10.1-24.8-23.9-24.8S54.5-50.1,54.5-37.5c0,13.3,10.8,24,24,24
						c4.6,0,9.1-1.4,12.9-4.1c4.1-2.9,7.3-6.9,9.2-11.6L86.8-29.1z M68.1-42.6c0.6-2.7,3.3-7.8,10.3-7.8s9.7,5.1,10.3,7.8H68.1z"/>
				</g>
			</g>
		</g>
	</g>
</g>
</svg>
