<?xml version="1.0" encoding="utf-8"?>
<!-- Generator: Adobe Illustrator 28.0.0, SVG Export Plug-In . SVG Version: 6.00 Build 0)  -->
<svg version="1.1" id="Capa_1" xmlns="http://www.w3.org/2000/svg" xmlns:xlink="http://www.w3.org/1999/xlink" x="0px" y="0px"
	 viewBox="0 0 263.9 65.4" style="enable-background:new 0 0 263.9 65.4;" xml:space="preserve">
<style type="text/css">
	.st0{fill:#1F1F1D;}
	.st1{fill:#20201E;}
	.st2{fill:#C8D309;}
	.st3{fill:#232321;}
	.st4{fill:#C8D308;}
	.st5{fill:#C8D30A;}
	.st6{fill:#242422;}
	.st7{fill:#F5F6EF;}
	.st8{fill:#C4CF05;}
</style>
<g id="kLeKyy_00000031195359060970389940000018175944037099360140_">
	<g>
		<path class="st0" d="M234.7,2.7c10.1,0.2,18.1,8.4,17.8,18.5c-0.2,9.9-8.5,17.8-18.3,17.7c-10-0.2-18-8.4-17.8-18.3
			C216.6,10.5,224.8,2.6,234.7,2.7z M231,23.4c3-0.9,5.9-1.8,8.9-2.7c0.8-0.2,1.2-0.6,1.2-1.4c-0.1-1.7,0-3.4-0.1-5.1
			c-0.3-3.9-2.5-5.9-6.5-5.9c-4.3-0.2-6.8,1.8-7.1,6c-0.3,4.6-0.3,9.3,0,13.9c0.2,2.8,1.9,4.5,4.6,5.1c2,0.5,4.1,0.5,6.1,0.1
			c2.4-0.5,2.4-0.5,2.3-2.9c0-1-0.3-1.2-1.2-0.9c-1.6,0.5-3.3,0.7-5.1,0.5c-2.2-0.2-3.2-1.2-3.2-3.4C231,25.6,231,24.5,231,23.4z"/>
		<path class="st1" d="M147.3,37.2c0-5.5,0-10.9,0-16.4c0-1.2,0.2-1.8,1.5-1.5c1,0.2,2.6-0.9,2.8,1.3c0,0.3,0.7,0,1.1-0.1
			c2.1-0.8,4.3-1.3,6.5-1.2c1.7,0.1,3.3,0.5,4.5,1.7c0.8,0.7,1.3,0.6,2.1,0.1c2.3-1.3,4.8-1.9,7.4-1.9c4.7,0.1,7.8,2.8,7.9,7.5
			c0.2,9.2,0.1,18.4,0.1,27.5c0,0.7-0.2,1-1,1c-3.4,0.2-3.4,0.3-3.4-3.1c0-7.8,0-15.5,0-23.3c0-4.7-2.2-6.4-6.8-5.2
			c-0.3,0.1-0.6,0.1-0.9,0.2c-2.8,0.9-2.9,1-2.9,3.9c0,8.5,0,17.1,0,25.6c0,1.4-0.3,1.9-1.8,1.9c-2.5-0.1-2.5,0-2.5-2.5
			c0-8,0-16,0-24c0-4.3-1.6-5.7-5.9-5.3c-0.2,0-0.4,0-0.5,0.1c-3.9,0.7-4.1,1-4.1,4.9c0,8.4,0,16.7,0,25.1c0,1.4-0.4,1.9-1.8,1.7
			c-0.4-0.1-0.8-0.1-1.2,0c-1.2,0.2-1.3-0.4-1.3-1.4C147.4,48.3,147.3,42.7,147.3,37.2z"/>
		<path class="st2" d="M66.4,37.3c0,3.2,0.1,6.4,0,9.5c-0.1,5.5-3.4,8.7-9,9c-5.8,0.3-9.7-2.4-10.1-7.9c-0.6-7.1-0.3-14.2-0.1-21.3
			c0-0.1,0-0.2,0.1-0.3c0.7-4.4,3.2-6.9,7.7-7.4c7.3-1,11.5,2.7,11.5,9.9C66.5,31.5,66.5,34.4,66.4,37.3
			C66.5,37.3,66.4,37.3,66.4,37.3z M62.2,37.2C62.2,37.2,62.2,37.2,62.2,37.2c0-3.2,0-6.5-0.1-9.7c-0.1-3-1.8-4.7-4.7-4.9
			c-3.6-0.2-5.5,1.1-6,4.2c-0.1,0.7-0.2,1.4-0.2,2.1c0,5.5,0,10.9,0,16.4c0,1,0.1,2,0.4,3c0.4,1.5,1.3,2.7,2.8,3.1
			c4.1,1,7.7-0.1,7.7-5.2C62.2,43.2,62.2,40.2,62.2,37.2z"/>
		<path class="st3" d="M106.5,50.3c0.1,0.2,0.1,0.3,0.1,0.4c0.3,4,0.1,4.1-3.9,4.5c-2.8,0.3-5.5,0.3-8.2-0.4
			c-3.9-1.1-6.1-3.8-6.2-7.8c-0.1-6.6-0.1-13.2,0-19.8c0.1-5,3.1-8,8.1-8.6c6.9-0.8,10.8,2.5,11.2,9.4c0.1,2.2,0,4.5,0.1,6.7
			c0,0.9-0.3,1.2-1.1,1.4c-4.2,1.2-8.4,2.6-12.7,3.7c-1.2,0.3-1.5,0.8-1.4,2c0.1,1.2,0,2.5,0,3.7c0.1,3.7,1.8,5.5,5.5,5.7
			C100.9,51.5,103.7,51.1,106.5,50.3z M92.5,31.3C92.5,31.3,92.5,31.3,92.5,31.3c-0.1,1.3,0,2.6-0.1,3.9c0,0.9,0.2,1.2,1.1,0.9
			c3-0.9,6-1.8,9.1-2.7c0.5-0.1,0.9-0.2,0.9-0.9c-0.1-2,0.3-4.1-0.3-6.1c-0.7-2.7-2.6-3.9-5.9-3.7c-2.8,0.2-4.5,1.7-4.7,4.4
			C92.4,28.5,92.5,29.9,92.5,31.3z"/>
		<path class="st1" d="M139.7,52.5c-2.3,1.9-4.5,2.8-6.9,2.9c-6.4,0.4-10.8-5.4-8.9-12c1.2-4.1,4-6.7,8-8c2.2-0.7,4.4-1.4,6.6-1.9
			c0.8-0.2,1.1-0.6,1.1-1.5c-0.1-1.3,0-2.6,0-3.9c-0.1-2.8-1.3-4.2-4-4.8c-2.5-0.5-4.9-0.3-7.3,0.3c-0.8,0.2-1.1,0.1-1.2-0.9
			c-0.2-3.2-0.1-3.3,3.2-3.7c2.1-0.2,4.1-0.3,6.2,0c4.4,0.7,7,3.3,7.1,7.8c0.2,4.9,0.1,9.9,0.1,14.8c0,3.9,0,7.9,0,11.8
			c0,1.2-0.2,1.8-1.5,1.6c-0.1,0-0.1,0-0.2,0C140.2,55.5,139,55.1,139.7,52.5z M139.5,43.2c0-1.6,0-3.3,0-4.9c0-0.9-0.3-1-1-0.7
			c-2,0.6-4.1,1.1-6,1.9c-2.3,0.9-4,2.6-4.7,5.1c-1,3.4,0.9,6.4,4.2,6.8c1,0.1,2,0.1,3,0c3.3-0.5,4.6-1.9,4.6-5.3
			C139.5,45.1,139.5,44.2,139.5,43.2z"/>
		<path class="st4" d="M24.4,50.3c0,1.2,0,2.2,0,3.3c0,0.7-0.3,1.1-0.9,1.2c-3.8,0.9-7.7,1.2-11.5,0C8.2,53.6,6.1,50.9,6,47
			C5.9,40.5,5.9,34,6,27.4c0.1-5,3.1-8.1,8-8.7c7-0.9,11.3,2.8,11.4,9.8c0,2.1,0,4.1,0,6.2c0,0.9-0.3,1.3-1.2,1.6
			c-4.2,1.2-8.4,2.5-12.7,3.7c-1,0.3-1.4,0.8-1.3,1.8c0.1,1.2,0,2.5,0,3.7c0,3.7,1.8,5.6,5.6,5.8C18.7,51.5,21.4,51.1,24.4,50.3z
			 M10.2,30.9c0,1.6,0,2.9,0,4.1c0,1,0.3,1.3,1.2,0.9c1.6-0.5,3.3-1,4.9-1.5c5.5-1.7,5.5-1.7,4.9-7.4c-0.3-2.7-1.9-4.3-4.6-4.5
			c-3.5-0.3-5.4,0.8-6.1,3.6C10,27.9,10.3,29.6,10.2,30.9z"/>
		<path class="st3" d="M208.3,50.8c0.1,0.1,0.1,0.1,0.1,0.2c0.1,4.8,0.8,3.8-3.5,4.4c-1.8,0.3-3.7,0.1-5.4-0.3
			c-4.1-0.9-6.2-3.5-6.4-7.9c-0.2-6.6-0.2-13.2,0-19.8c0.1-5.1,2.7-7.6,7.8-8.3c2-0.3,3.9-0.1,5.8,0.1c1.3,0.1,1.9,0.6,1.8,2
			c-0.1,2.4,0,2.4-2.5,2.1c-1.8-0.3-3.6-0.3-5.4,0.1c-1.7,0.4-2.7,1.5-3.1,3.2c-0.3,1.6-0.2,3.2-0.2,4.8c0,4.8,0,9.6,0,14.5
			c0,4,1.4,5.4,5.4,5.5C204.6,51.4,206.4,51.1,208.3,50.8z"/>
		<path class="st5" d="M29.1,37.9c0-3.8,0-6.7,0-9.7c0.1-6.1,2.9-8.9,8.9-9.3c1.2-0.1,2.4,0,3.5,0.1c3.2,0.4,3.2,0.4,3,3.7
			c-0.1,0.8-0.2,1-1,0.8c-2.1-0.3-4.3-0.7-6.5-0.2c-2.2,0.5-3.4,1.5-3.5,3.8c-0.1,6.8-0.1,13.5,0,20.3c0,2.1,1.1,3.1,3.2,3.6
			c2.2,0.5,4.5,0.3,6.7-0.1c0.9-0.2,1.2-0.1,1.1,0.9c-0.1,3.6,0.7,3.1-3,3.6c-2.4,0.3-4.7,0.2-7-0.5c-3-1-4.8-3.1-5.2-6.3
			C28.8,44.7,29.2,40.9,29.1,37.9z"/>
		<path class="st1" d="M70.3,37.2c0-3.2,0-6.5,0-9.7c0.1-4.9,2.7-7.7,7.5-8.4c2-0.3,4-0.1,6,0.1c1.3,0.1,2,0.5,1.9,2
			c-0.1,2.5,0,2.5-2.6,2.1c-1.6-0.2-3.3-0.3-4.9,0c-2.4,0.5-3.6,1.7-3.6,4.1c-0.1,6.6-0.1,13.2,0,19.8c0,2.3,1.1,3.4,3.3,3.9
			c2.2,0.5,4.3,0.3,6.5-0.1c1.1-0.2,1.3,0.1,1.3,1.1c0,3,0.1,2.9-2.9,3.3c-2.2,0.3-4.3,0.2-6.5-0.3c-3.8-1-5.8-3.6-5.9-7.5
			C70.2,44,70.3,40.6,70.3,37.2C70.3,37.2,70.3,37.2,70.3,37.2z"/>
		<path class="st3" d="M115.5,22.8c2.2-2.6,4.5-3.9,7.4-3.7c0.7,0,1.1,0.2,1,1c0,0.3-0.1,0.7,0,1.1c0.3,1.8-0.3,2.4-2.2,2.3
			c-3.8-0.1-6.1,2.3-6.1,6.1c0,7.9-0.1,15.8,0,23.7c0,1.7-0.5,2.2-2,1.9c-0.2,0-0.4,0-0.5,0c-1.3,0.2-1.8-0.2-1.8-1.7
			c0.1-3.5,0-6.9,0-10.4c0-7.4,0-14.7,0-22.1c0-1.4,0.3-2,1.8-1.8c1.2,0.1,2.8-0.5,2.4,1.8C115.4,21.4,115.5,21.9,115.5,22.8z"/>
		<path class="st6" d="M189.3,37.6c0,5.3,0,10.6,0,15.9c0,1.3-0.3,2-1.7,1.8c-0.3-0.1-0.7-0.1-1.1,0c-1.2,0.2-1.6-0.3-1.6-1.5
			c0.1-4.2,0-8.5,0-12.7c0-6.6,0-13.2,0-19.7c0-1.3,0.3-2,1.7-1.7c0.3,0.1,0.6,0.1,0.9,0c1.5-0.3,1.8,0.5,1.8,1.8
			C189.2,26.8,189.3,32.2,189.3,37.6z"/>
		<path class="st7" d="M231,23.4c0,1.1-0.1,2.2,0,3.4c0.1,2.2,1,3.2,3.2,3.4c1.7,0.1,3.4,0,5.1-0.5c1-0.3,1.2-0.1,1.2,0.9
			c0.1,2.5,0.1,2.5-2.3,2.9c-2,0.4-4.1,0.4-6.1-0.1c-2.7-0.7-4.3-2.3-4.6-5.1c-0.4-4.6-0.4-9.3,0-13.9c0.3-4.2,2.8-6.2,7.1-6
			c0,1.1,0,2.1,0,3.2c-3.1,0.6-3.5,1-3.6,4.2c0,1.4,0,2.8,0,4.2C231,21,231,22.2,231,23.4z"/>
		<path class="st8" d="M234.5,11.4c0-1.1,0-2.1,0-3.2c3.9,0,6.2,2,6.5,5.9c0.1,1.7,0,3.4,0.1,5.1c0,0.9-0.3,1.2-1.2,1.4
			c-3,0.9-6,1.8-8.9,2.7c0-1.2,0-2.4,0-3.6c1.9-0.5,3.8-1.1,5.7-1.6c0.4-0.1,0.8-0.2,0.9-0.7C238.6,15,237.1,12,234.5,11.4z"/>
		<path class="st1" d="M234.5,11.4c2.6,0.6,4.1,3.6,3.1,6.1c-0.2,0.5-0.6,0.5-0.9,0.7c-1.9,0.5-3.8,1.1-5.7,1.6c0-1.4-0.1-2.8,0-4.2
			C231,12.4,231.4,12,234.5,11.4z"/>
	</g>
</g>
</svg>
