<?xml version="1.0" encoding="utf-8"?>
<!-- Generator: Adobe Illustrator 28.0.0, SVG Export Plug-In . SVG Version: 6.00 Build 0)  -->
<svg version="1.1" id="Layer_1" xmlns="http://www.w3.org/2000/svg" xmlns:xlink="http://www.w3.org/1999/xlink" x="0px" y="0px"
	 viewBox="0 0 125 47" style="enable-background:new 0 0 125 47;" xml:space="preserve">
<style type="text/css">
	.st0{clip-path:url(#SVGID_00000119095378207542893050000006971950804475497634_);}
	.st1{clip-path:url(#SVGID_00000085932932262165791440000010513381469101517710_);fill:#A39165;}
	.st2{clip-path:url(#SVGID_00000085932932262165791440000010513381469101517710_);fill:#231F20;}
</style>
<g>
	<g>
		<defs>
			<rect id="SVGID_1_" x="-3.3" y="-14.4" width="130.2" height="73.2"/>
		</defs>
		<clipPath id="SVGID_00000034768074886303804510000011619300560811302299_">
			<use xlink:href="#SVGID_1_"  style="overflow:visible;"/>
		</clipPath>
		<g style="clip-path:url(#SVGID_00000034768074886303804510000011619300560811302299_);">
			<defs>
				<rect id="SVGID_00000087395704155960614910000010897424925803658172_" x="-3.3" y="-14.4" width="130.2" height="73.2"/>
			</defs>
			<clipPath id="SVGID_00000145745904554000356840000017917156727284958388_">
				<use xlink:href="#SVGID_00000087395704155960614910000010897424925803658172_"  style="overflow:visible;"/>
			</clipPath>
			<path style="clip-path:url(#SVGID_00000145745904554000356840000017917156727284958388_);fill:#A39165;" d="M18.4,25.7
				c0,0.7-0.1,1.4-0.4,2.1c-0.5,1.3-1.3,2.2-2.4,2.8c-1.1,0.6-2.4,0.9-4,0.9c-1.5,0-2.9-0.2-4.1-0.7c-1.2-0.5-2.4-1.3-3.6-2.5
				l-0.2-0.2L4,27.8L5.1,26l0.2,0.5c0.6,1.1,1,1.9,1.8,2.8c1.3,0.8,2.6,1.2,4,1.2c1.8,0,4.8-1.5,5.2-3.6c0.1-0.5,0-1-0.2-1.3
				c-0.2-0.4-0.6-0.8-1-1.1c-0.5-0.3-1.1-0.6-1.8-0.9c-0.7-0.3-1.5-0.5-2.3-0.8c-0.7-0.2-1.5-0.4-2.4-0.7c-0.9-0.3-1.7-0.6-2.4-1.1
				c-0.7-0.5-1.3-1.1-1.8-1.9c-0.5-0.8-0.7-1.7-0.6-2.9c0-1,0.3-1.9,0.7-2.6c0.4-0.7,1-1.3,1.7-1.7c0.7-0.4,1.4-0.7,2.2-0.9
				c0.8-0.2,1.6-0.3,2.3-0.3c0.6,0,1.2,0.1,1.7,0.2c0.6,0.1,1.2,0.3,1.7,0.5c0,0,0,0,0.1,0l0.2,0.1l-0.2,0.3L14,13.9l-0.4-0.3
				c-1-0.8-1.7-1.3-2.9-1.9C9,11.8,7,12.8,6.3,14.2C6.1,14.6,6,15.1,6,15.7c0,0.5,0.1,0.8,0.3,1.1c0.2,0.3,0.5,0.6,0.9,0.8
				c0.4,0.2,1,0.5,1.8,0.7c0.7,0.3,1.7,0.6,2.8,0.9c1.2,0.4,2.3,0.8,3.1,1.2c0.9,0.4,1.6,0.9,2.1,1.4c0.5,0.5,0.9,1.1,1.2,1.7
				C18.3,24.2,18.4,24.9,18.4,25.7"/>
			<path style="clip-path:url(#SVGID_00000145745904554000356840000017917156727284958388_);fill:#A39165;" d="M32.8,30.1l-0.2,0.2
				c-0.4,0.5-0.9,0.8-1.4,1c-0.5,0.2-1,0.2-1.6,0.2c-0.5,0-1.6-0.1-2.1-0.3c-0.5-0.2-1-0.5-1.4-1c-0.4-0.4-0.7-1-0.9-1.8
				c-0.2-0.7-0.3-1.6-0.3-2.7v-6.3h-2.4v-0.7l0.2-0.1c1.5-0.6,3.7-2.2,4.8-4.1l0.6-1v12.2c0,1.6,0.1,2.8,0.4,3.5
				c0.2,0.4,0.6,1.4,1.4,1.4c0.7,0,1.4-0.7,1.8-1.3l0.2-0.3L32.8,30.1z"/>
			<path style="clip-path:url(#SVGID_00000145745904554000356840000017917156727284958388_);fill:#A39165;" d="M46.9,16.1l0,0.3
				c-0.1,0.3-0.1,0.7-0.2,1c-0.1,0.3-0.1,0.7-0.2,1.1l-0.1,0.5L46,18.6c-0.7-0.6-2.5-0.6-3.3-0.3c-0.4,0.2-0.9,0.8-1.3,1.8v11.4
				h-3.1V16.1l2.2,0l0.8,1.8l0,0.3c0.3-0.5,0.7-0.9,1.2-1.2c0.8-0.6,1.8-0.9,3-0.9c0.3,0,0.7,0,1.1,0.1L46.9,16.1z"/>
			<path style="clip-path:url(#SVGID_00000145745904554000356840000017917156727284958388_);fill:#A39165;" d="M64,23.8v7.7h-2.3
				l-0.5-1.1c-0.3,0.2-0.7,0.4-1.1,0.6c-0.7,0.3-1.9,0.4-2.7,0.4c-0.6,0-1.3-0.1-2.1-0.3c-0.7-0.2-1.4-0.5-1.9-1
				c-0.5-0.5-0.9-1.1-1.1-1.7c-0.2-0.6-0.4-1.3-0.4-2c0-0.7,0.1-1.4,0.4-2c0.2-0.6,0.6-1.2,1.1-1.7c0.5-0.5,1.1-0.8,1.9-1
				c0.5-0.1,1.2-0.2,1.8-0.3l0.2,0c0.6-0.1,1.1-0.2,1.6-0.3c0.5-0.1,0.9-0.2,1.3-0.4c0.4-0.2,0.6-0.4,0.6-0.9c0-0.7-0.3-1.4-0.7-1.9
				c-1-1.2-2.8-1.5-3.9-0.7c-1,0.8-1.1,1.8-1.2,2.6c0,0.1,0,0.3,0,0.4l-0.1,0.4L52,19.3l0.2-0.3c2.2-3.1,5.1-3.1,6.3-3.1l0.2,0
				c2.7,0,4.1,1.8,4.5,2.9c0.3,0.7,0,1.5-0.5,1.9c-0.6,0.4-1.5,0.8-2.9,1.2c-2,0.5-4,1.1-4.5,3.3c-0.3,1.3-0.1,2.7,0.5,3.7
				c0.4,0.6,0.9,1,1.5,1.1c2,0.4,3.1-0.4,3.7-1.1c0.1-0.4,0-2.1,0-3.7l0-0.2L64,23.8z"/>
			<path style="clip-path:url(#SVGID_00000145745904554000356840000017917156727284958388_);fill:#A39165;" d="M84,23.8
				c0,1.3-0.2,2.5-0.6,3.5c-0.4,1-0.9,1.8-1.5,2.4c-0.6,0.6-1.4,1.1-2.1,1.4c-1.6,0.6-3.3,0.6-4.8,0c-0.5-0.2-0.9-0.5-1.3-0.8v7.1
				h-3.1v-21h2.4l0.4,1.1c0.4-0.4,0.9-0.7,1.4-0.9c1.4-0.5,3.1-0.6,4.7,0c0.8,0.3,1.6,0.8,2.2,1.4c0.7,0.6,1.2,1.4,1.6,2.4
				C83.7,21.3,83.9,22.5,84,23.8 M80.5,23c-0.1-0.9-0.2-1.7-0.5-2.4c-0.5-1.1-1.7-2.6-3.1-3.1c-0.8-0.3-1.5-0.3-2.2,0.1
				c-0.4,0.2-0.8,0.5-1.1,0.9v10c0.4,0.5,0.8,0.9,1.2,1.1c0.6,0.3,1.2,0.4,1.8,0.4c2.5,0,3.4-2.7,3.7-3.9
				C80.6,25.3,80.6,24.3,80.5,23"/>
			<path style="clip-path:url(#SVGID_00000145745904554000356840000017917156727284958388_);fill:#A39165;" d="M102.7,23.7
				c-0.5,1.2-2.4,1.1-2.5,1.1c0,0-5.5,0-7.2,0c0.1,1.3,0.4,2.3,1.2,3.3c0.6,0.7,1.3,1.3,2,1.6c1,0.4,1.9,0.5,2.7,0.2
				c1.5-0.6,2.2-2.1,2.2-2.1l0.2-0.4l1,0.8l-0.2,0.2c-1.6,2-3.6,3.1-5.7,3.1c-0.2,0-0.4,0-0.6,0l-0.1,0c-4.7-0.3-5.8-4.5-6-5.8
				l0-0.1c0.2-1.6,2.7-1.8,2.8-1.9c0.3,0,5.7,0,7.1,0c0.2-2.3-0.2-4-1.3-5.2c-0.9-1-2-1.2-2.2-1.2c-3.3,0.4-3.5,5.5-3.5,5.6l0,0.3
				l-0.3,0c-2,0.2-2.8-0.6-2.8-0.6l-0.1-0.1l0-0.1c1.1-5.9,5.1-6.3,6.7-6.3l0.1,0c2.8-0.1,4.4,1.4,5.3,2.7
				C102.8,20.5,103.1,22.9,102.7,23.7"/>
			<polygon style="clip-path:url(#SVGID_00000145745904554000356840000017917156727284958388_);fill:#A39165;" points="121.3,31.5 
				117.7,31.5 113.5,25.5 109.2,31.5 108,31.5 112.9,24.7 106.7,15.9 110.2,15.9 114.6,22.2 119.1,15.9 120.3,15.9 115.2,23 			"/>
			<path style="clip-path:url(#SVGID_00000145745904554000356840000017917156727284958388_);fill:#231F20;" d="M39.2,5.6h0.6v1.6
				c-0.4,0.4-1,0.5-1.6,0.5c-1.3,0-2.2-0.9-2.2-2.1c0-1.2,0.9-2.1,2.2-2.1c0.7,0,1.2,0.2,1.6,0.6l-0.4,0.4C39.1,4.2,38.7,4,38.2,4
				c-1,0-1.7,0.7-1.7,1.6c0,0.9,0.7,1.6,1.7,1.6c0.4,0,0.7-0.1,1-0.3V5.6z"/>
			<path style="clip-path:url(#SVGID_00000145745904554000356840000017917156727284958388_);fill:#231F20;" d="M49.1,7.7l-0.9-1.3
				c-0.1,0-0.2,0-0.3,0h-1v1.3h-0.6V3.5H48c1.1,0,1.7,0.5,1.7,1.5c0,0.6-0.3,1.1-0.9,1.3l1,1.4H49.1z M49.1,5c0-0.6-0.4-0.9-1.2-0.9
				h-1v1.9h1C48.7,5.9,49.1,5.6,49.1,5"/>
			<path style="clip-path:url(#SVGID_00000145745904554000356840000017917156727284958388_);fill:#231F20;" d="M55.8,5.6
				c0-1.2,0.9-2.1,2.2-2.1c1.3,0,2.2,0.9,2.2,2.1c0,1.2-0.9,2.1-2.2,2.1C56.7,7.7,55.8,6.8,55.8,5.6 M59.6,5.6C59.6,4.7,58.9,4,58,4
				c-0.9,0-1.6,0.7-1.6,1.6c0,0.9,0.7,1.6,1.6,1.6C58.9,7.2,59.6,6.5,59.6,5.6"/>
			<path style="clip-path:url(#SVGID_00000145745904554000356840000017917156727284958388_);fill:#231F20;" d="M66.5,5.9V3.5h0.6
				v2.3c0,0.9,0.4,1.3,1.2,1.3c0.8,0,1.2-0.4,1.2-1.3V3.5H70v2.4c0,1.2-0.7,1.8-1.8,1.8C67.2,7.7,66.5,7.1,66.5,5.9"/>
			<path style="clip-path:url(#SVGID_00000145745904554000356840000017917156727284958388_);fill:#231F20;" d="M80,5
				c0,0.9-0.7,1.5-1.7,1.5h-1v1.3h-0.6V3.5h1.6C79.4,3.5,80,4.1,80,5 M79.4,5C79.4,4.4,79,4,78.3,4h-1v1.9h1C79,5.9,79.4,5.6,79.4,5
				"/>
			<polygon style="clip-path:url(#SVGID_00000145745904554000356840000017917156727284958388_);fill:#231F20;" points="89.4,7.2 
				89.4,7.7 86.4,7.7 86.4,3.5 89.3,3.5 89.3,4 86.9,4 86.9,5.3 89,5.3 89,5.8 86.9,5.8 86.9,7.2 			"/>
			<polygon style="clip-path:url(#SVGID_00000145745904554000356840000017917156727284958388_);fill:#231F20;" points="39.5,44.5 
				39.5,41.5 38,44 37.7,44 36.2,41.5 36.2,44.5 35.7,44.5 35.7,40.4 36.2,40.4 37.9,43.2 39.5,40.4 40,40.4 40,44.5 			"/>
			<path style="clip-path:url(#SVGID_00000145745904554000356840000017917156727284958388_);fill:#231F20;" d="M51.4,43.4h-2.2
				l-0.4,1h-0.6l1.8-4.1h0.6l1.8,4.1h-0.6L51.4,43.4z M51.2,43l-0.9-2l-0.9,2H51.2z"/>
			<path style="clip-path:url(#SVGID_00000145745904554000356840000017917156727284958388_);fill:#231F20;" d="M63.9,44.5L63,43.2
				c-0.1,0-0.2,0-0.3,0h-1v1.3h-0.6v-4.2h1.6c1.1,0,1.7,0.5,1.7,1.5c0,0.6-0.3,1.1-0.9,1.3l1,1.4H63.9z M63.9,41.8
				c0-0.6-0.4-0.9-1.2-0.9h-1v1.9h1C63.5,42.7,63.9,42.4,63.9,41.8"/>
			<path style="clip-path:url(#SVGID_00000145745904554000356840000017917156727284958388_);fill:#231F20;" d="M73.2,42.4
				c0-1.2,0.9-2.1,2.2-2.1c1.2,0,2.2,0.9,2.2,2.1c0,1.2-0.9,2.1-2.2,2.1C74.1,44.5,73.2,43.6,73.2,42.4 M76.9,42.4
				c0-0.9-0.7-1.6-1.6-1.6c-0.9,0-1.6,0.7-1.6,1.6c0,0.9,0.7,1.6,1.6,1.6C76.2,44,76.9,43.3,76.9,42.4"/>
			<path style="clip-path:url(#SVGID_00000145745904554000356840000017917156727284958388_);fill:#231F20;" d="M86,42.4
				c0-1.2,0.9-2.1,2.2-2.1c0.6,0,1.2,0.2,1.5,0.6l-0.4,0.4c-0.3-0.3-0.7-0.5-1.1-0.5c-0.9,0-1.6,0.7-1.6,1.6c0,0.9,0.7,1.6,1.6,1.6
				c0.4,0,0.8-0.2,1.1-0.5l0.4,0.4c-0.4,0.4-0.9,0.6-1.6,0.6C86.9,44.5,86,43.6,86,42.4"/>
		</g>
	</g>
</g>
</svg>
